<svg width="16" height="15" viewBox="0 0 16 15" fill="none" xmlns="http://www.w3.org/2000/svg">
<path fill-rule="evenodd" clip-rule="evenodd" d="M1.09992 6.4574C5.39487 4.34056 8.25885 2.945 9.69185 2.27074C13.7834 0.345581 14.6335 0.0111605 15.1877 0.000117741C15.3095 -0.00231099 15.5821 0.031858 15.7586 0.19389C15.9076 0.330707 15.9486 0.515527 15.9683 0.645244C15.9879 0.774961 16.0123 1.07046 15.9929 1.30136C15.7712 3.93675 14.8118 10.3322 14.3237 13.2838C14.1172 14.5328 13.7105 14.9516 13.3169 14.9926C12.4613 15.0816 11.8116 14.3529 10.9829 13.7384C9.68624 12.7769 8.9537 12.1783 7.69503 11.24C6.24043 10.1556 7.18338 9.55963 8.01236 8.58562C8.22931 8.33071 11.999 4.45188 12.0719 4.10001C12.0811 4.056 12.0895 3.89197 12.0034 3.80535C11.9172 3.71873 11.7901 3.74835 11.6983 3.77191C11.5683 3.8053 9.4968 5.35418 5.48389 8.41854C4.89591 8.87529 4.36333 9.09783 3.88616 9.08617C3.36012 9.07331 2.34822 8.7497 1.59598 8.47308C0.673328 8.1338 -0.0599784 7.95442 0.00387615 7.37821C0.0371355 7.07809 0.402482 6.77115 1.09992 6.4574Z" fill="#999999"/>
</svg>
