<?xml version="1.0" encoding="UTF-8" standalone="no"?>
<!-- Created with Inkscape (http://www.inkscape.org/) -->

<svg
   width="42.125"
   height="25.125"
   viewBox="0 0 42.125 25.125"
   version="1.1"
   id="svg1"
   xml:space="preserve"
   xmlns="http://www.w3.org/2000/svg"
   xmlns:svg="http://www.w3.org/2000/svg"><defs
     id="defs1" /><g
     id="layer1"
     transform="translate(-3,-12.625)"><path
       id="rect1"
       style="fill:#333333;stroke-width:0.977762"
       d="M 5.5542011,12.625 H 42.570799 c 1.415027,0 2.554201,1.139174 2.554201,2.554201 0,1.415028 -1.139174,2.554201 -2.554201,2.554201 H 5.5542011 C 4.1391737,17.733402 3,16.594229 3,15.179201 3,13.764174 4.1391737,12.625 5.5542011,12.625 Z" /><path
       id="rect1-4"
       style="fill:#333333;stroke-width:0.977762"
       d="M 5.5542011,22.633299 H 42.570799 c 1.415027,0 2.554201,1.139174 2.554201,2.554201 0,1.415027 -1.139174,2.554201 -2.554201,2.554201 H 5.5542011 C 4.1391737,27.741701 3,26.602527 3,25.1875 3,23.772473 4.1391737,22.633299 5.5542011,22.633299 Z" /><path
       id="rect1-4-9"
       style="fill:#333333;stroke-width:0.977762"
       d="M 5.5542011,32.641598 H 42.570799 c 1.415027,0 2.554201,1.139173 2.554201,2.554201 0,1.415027 -1.139174,2.554201 -2.554201,2.554201 H 5.5542011 C 4.1391737,37.75 3,36.610826 3,35.195799 3,33.780771 4.1391737,32.641598 5.5542011,32.641598 Z" /></g></svg>
