<svg width="85" height="55" viewBox="0 0 85 55" fill="none" xmlns="http://www.w3.org/2000/svg">
<path d="M16.04 17.476V30.724H11.9V21.472H7.868V17.476H16.04ZM16.04 29.032C17.408 31.408 19.964 32.452 23.672 32.596C27.992 32.812 36.524 32.704 41.528 32.308C41.06 33.28 40.376 35.26 40.196 36.52C35.696 36.736 28.028 36.808 23.636 36.592C19.316 36.412 16.4 35.368 14.24 32.596C12.8 34 11.288 35.368 9.488 36.916L7.436 32.632C8.948 31.66 10.712 30.364 12.296 29.032H16.04ZM7.976 6.784L11.288 4.372C13.34 5.956 15.86 8.368 16.976 10.06L13.412 12.796C12.44 11.032 10.028 8.548 7.976 6.784ZM30.764 3.868L35.516 4.732C34.328 7.216 32.996 9.808 31.952 11.5L28.388 10.564C29.288 8.656 30.296 5.92 30.764 3.868ZM23.996 8.584H39.944V12.22H23.996V28.24H19.82V11.896L23.096 8.584H23.996ZM22.196 14.524H39.008V18.016H22.196V14.524ZM22.196 20.356H38.864V23.848H22.196V20.356ZM19.82 26.296H40.592V29.932H19.82V26.296ZM28.676 10.168H32.78V27.916H28.676V10.168ZM22.7 3.544L26.984 4.804C24.896 9.916 21.44 14.884 17.876 17.98C17.192 17.08 15.608 15.352 14.672 14.56C18.02 12.004 21.008 7.864 22.7 3.544ZM59.672 4.372H64.064V30.292C64.064 32.452 64.316 32.812 66.08 32.812C66.872 32.812 70.472 32.812 71.336 32.812C73.1 32.812 73.388 31.552 73.64 26.476C74.684 27.232 76.448 28.024 77.672 28.276C77.132 34.504 75.98 36.808 71.732 36.808C70.688 36.808 66.512 36.808 65.54 36.808C61.004 36.808 59.672 35.368 59.672 30.256V4.372ZM73.172 10.384L76.34 14.164C72.272 17.044 67.124 19.744 62.444 21.94C62.156 20.932 61.328 19.42 60.716 18.484C65.18 16.36 69.968 13.12 73.172 10.384ZM52.724 3.904L56.972 5.344C54.272 11.752 49.844 18.412 45.308 22.588C44.876 21.472 43.616 19.096 42.824 18.016C46.712 14.668 50.492 9.34 52.724 3.904ZM48.908 14.056L53.156 9.808L53.228 9.88V37.168H48.908V14.056Z" fill="white"/>
<rect y="44.6597" width="83.2292" height="3.78472" fill="white"/>
<rect y="50.7153" width="83.2292" height="3.78472" fill="white"/>
</svg>
